<?xml version="1.0" standalone="yes"?>
<svg xmlns="http://www.w3.org/2000/svg" width="295" height="295">
<path style="fill:#000000; stroke:none;" d="M0 0L0 119C2.51235 113.782 2.97231 107.534 4.74614 102C7.72867 92.6952 11.6543 83.5855 16.3086 75C31.0098 47.8819 54.5543 26.4424 82 12.7531C93.0399 7.24661 105.625 2.20944 118 1C114.041 -0.661102 109.26 0 105 0L82 0L0 0z"/>
<path style="fill:#ffffff; stroke:none;" d="M118 0L119 1L118 0z"/>
<path style="fill:#484848; stroke:none;" d="M141 0C133.773 0 126.154 -0.684692 119 0.439056C63.8866 9.09631 18.3709 53.0402 3.42824 106C-1.01556 121.75 0 137.811 0 154C0 179.81 5.66372 202.552 18.8611 225C22.5424 231.262 28.2662 242.712 35.0394 245.953C40.8052 248.712 46.537 240.463 50 237L86 201L123 164C128.346 158.654 136.561 152.822 139.972 146C141.839 142.266 141 137.051 141 133L141 104L141 0z"/>
<path style="fill:#000000; stroke:none;" d="M141 0L141 105L141 133C141 137.23 141.76 142.256 139.397 146C133.521 155.307 122.771 163.229 115 171L64 222L46 239.999C43.8939 242.091 41.1794 245.703 38 246.079C32.2824 246.754 26.4672 235.929 23.7215 232C12.7183 216.253 2.58532 195.409 1 176C-0.661108 179.959 0 184.74 0 189L0 212L0 295L119 295C113.469 292.337 106.837 291.915 101 289.921C87.889 285.442 75.5264 279.538 64 271.833C59.6816 268.946 49.6026 263.745 48.9213 257.999C48.5851 255.164 51.2659 252.837 53.0193 251C58.2202 245.552 63.6741 240.326 69 235L127 177C131.66 172.34 136.233 167.57 141 163.019C142.838 161.265 145.163 158.587 148 158.921C152.789 159.486 157.807 166.807 161 170L193 202L232 241C235.798 244.798 245.413 251.371 246.079 257C246.754 262.718 235.929 268.533 232 271.279C216.17 282.34 195.517 292.447 176 294C179.959 295.661 184.74 295 189 295L212 295L295 295L295 177C292.365 182.482 291.914 189.188 289.921 195C285.457 208.022 279.475 220.707 271.562 232C268.77 235.983 263.892 245.054 258.83 246.248C255.715 246.984 252.991 243.885 251 241.981C245.897 237.1 240.993 231.993 236 227L186 177C179.746 170.746 168.408 163.124 167 154L295 154L295 140L154 140L154 0L141 0z"/>
<path style="fill:#484848; stroke:none;" d="M154 0L154 140L295 140C295 132.771 295.679 125.157 294.561 118C285.519 60.1075 235.295 10.7386 178 0.61496C170.211 -0.76123 161.887 0 154 0z"/>
<path style="fill:#000000; stroke:none;" d="M177 0C181.615 2.22217 187.088 2.70282 192 4.20526C200.508 6.80774 209.118 10.184 217 14.3202C246.771 29.9428 271.593 56.0442 284.85 87C289.054 96.818 293.146 107.267 294 118C295.661 114.041 295 109.26 295 105L295 82L295 0L177 0z"/>
<path style="fill:#ffffff; stroke:none;" d="M113 1L114 2L113 1M105 3L106 4L105 3M193 4L194 5L193 4M93 7L94 8L93 7M204 8L205 9L204 8M88 9L89 10L88 9M213 12L214 13L213 12M215 13L216 14L215 13M217 14L218 15L217 14M219 15L220 16L219 15M72 17L73 18L72 17M226 19L227 20L226 19M67 20L68 21L67 20M229 21L230 22L229 21M64 22L65 23L64 22z"/>
<path style="fill:#000000; stroke:none;" d="M227 22L228 23L227 22z"/>
<path style="fill:#ffffff; stroke:none;" d="M232 23L233 24L232 23M61 24L62 25L61 24M235 25L236 26L235 25M239 28L240 29L239 28M53 30L54 31L53 30M245 33L246 34L245 33M47 35L48 36L47 35M46 36L47 37L46 36M36 46L37 47L36 46M35 47L36 48L35 47M261 49L262 50L261 49M262 50L263 51L262 50M30 53L31 54L30 53M264 54L265 55L264 54M266 55L267 56L266 55M269 59L270 60L269 59M24 61L25 62L24 61z"/>
<path style="fill:#000000; stroke:none;" d="M268 61L269 62L268 61z"/>
<path style="fill:#ffffff; stroke:none;" d="M271 62L272 63L271 62M22 64L23 65L22 64M273 65L274 66L273 65M20 67L21 68L20 67M275 68L276 69L275 68M17 72L18 73L17 72M16 74L17 75L16 74M279 75L280 76L279 75M280 77L281 78L280 77M281 79L282 80L281 79M282 81L283 82L282 81M283 83L284 84L283 83M10 86L11 87L10 86M286 90L287 91L286 90M289 98L290 99L289 98M5 99L6 100L5 99M290 101L291 102L290 101M4 102L5 103L4 102M292 108L293 109L292 108M1 114L2 115L1 114M0 119L1 120L0 119z"/>
<path style="fill:#484848; stroke:none;" d="M167 154C167.71 163.42 178.715 170.715 185 177C201.805 193.805 218.903 210.358 235.576 227.285C240.596 232.383 245.523 237.435 250.83 242.242C253.097 244.294 255.576 247.189 259 246.288C266.05 244.432 272.282 231.82 275.796 226C284.846 211.015 292.437 193.496 294.711 176C295.644 168.817 295 161.236 295 154L167 154M145 159.047C141.486 160.652 138.678 164.323 136 167L121 182C103.803 199.197 86.6695 216.4 69.9097 234.015C64.4058 239.799 58.5371 245.23 53.0193 251C51.0416 253.068 48.0352 255.749 48.7515 258.961C49.5531 262.555 54.291 265.277 57 267.346C65.5426 273.87 75.1286 279.597 85 283.85C96.7331 288.904 109.182 293.59 122 294.83C130.541 295.657 139.422 295 148 295C156.25 295 164.786 295.625 173 294.83C187.371 293.44 202.1 288.028 215 281.741C223.753 277.474 232.451 272.063 239.999 265.905C242.446 263.909 246.197 261.439 246.534 257.985C247.15 251.672 235.98 243.98 232 240L185 193C175.667 183.667 166.365 174.301 157 165.001C153.921 161.943 149.892 156.813 145 159.047z"/>
<path style="fill:#ffffff; stroke:none;" d="M0 175L1 176L0 175M1 180L2 181L1 180M292 186L293 187L292 186M4 192L5 193L4 192M290 193L291 194L290 193M5 195L6 196L5 195M289 196L290 197L289 196M8 203L9 204L8 203M286 204L287 205L286 204M10 208L11 209L10 208M11 210L12 211L11 210M282 213L283 214L282 213M281 215L282 216L281 215M280 217L281 218L280 217M279 219L280 220L279 219M16 220L17 221L16 220M17 222L18 223L17 222M276 224L277 225L276 224M77 226L78 227L77 226M235 226L236 227L235 226M20 227L21 228L20 227M75 228L76 229L75 228M273 229L274 230L273 229M22 230L23 231L22 230M72 231L73 232L72 231M71 232L72 233L71 232M271 232L272 233L271 232M24 233L25 234L24 233M70 233L71 234L70 233M69 234L70 235L69 234M68 235L69 236L68 235M67 236L68 237L67 236M268 236L269 237L268 236M27 237L28 238L27 237M66 237L67 238L66 237M65 238L66 239L65 238M64 239L65 240L64 239M63 240L64 241L63 240M265 240L266 241L265 240M30 241L31 242L30 241M62 241L63 242L62 241M250 241L251 242L250 241M61 242L62 243L61 242M251 242L252 243L251 242M60 243L61 244L60 243M252 243L253 244L252 243M59 244L60 245L59 244M58 245L59 246L58 245M57 246L58 247L57 246M255 246L256 247L255 246M260 246L261 247L260 246M56 247L57 248L56 247M55 248L56 249L55 248M54 249L55 250L54 249M53 250L54 251L53 250M52 251L53 252L52 251M51 252L52 253L51 252M50 253L51 254L50 253M49 254L50 255L49 254M48 255L49 256L48 255M52 263L53 264L52 263M242 263L243 264L242 263M53 264L54 265L53 264M241 264L242 265L241 264M57 267L58 268L57 267M61 270L62 271L61 270M233 270L234 271L233 270M230 272L231 273L230 272M67 274L68 275L67 274M227 274L228 275L227 274M69 275L70 276L69 275M222 277L223 278L222 277M74 278L75 279L74 278M76 279L77 280L76 279M84 283L85 284L84 283M206 283L207 284L206 283M86 284L87 285L86 284M208 284L209 285L208 284M206 285L207 286L206 285M91 286L92 287L91 286M198 288L199 289L198 288M99 289L100 290L99 289M195 289L196 290L195 289M102 290L103 291L102 290M192 290L193 291L192 290M185 292L186 293L185 292M119 294L120 295L119 294M175 294L176 295L175 294z"/>
</svg>
